# xmcd
#
# Track frame offsets: 
#        150
#        28073
#        64369
#        95340
#        134101
#        159279
#        184451
#
# Disc length: 3338 seconds
#
# Revision: 0
# Processed by: cddbd v1.5PL3 Copyright (c) Steve Scherf et al.
# Submitted via: ExactAudioCopy v0.95a5
#
DISCID=640d0807
DTITLE=Rory Gallagher - Secret Agent in Cologne - CD2
DYEAR=2002
DGENRE=Blues
TTITLE0=I Take What I Want
TTITLE1=Calling Card
TTITLE2=Secret Agent
TTITLE3=Do You Read Me?
TTITLE4=Bought And Sold
TTITLE5=Country Mile
TTITLE6=Jacknife Beat
EXTD=
EXTT0=
EXTT1=
EXTT2=
EXTT3=
EXTT4=
EXTT5=
EXTT6=
PLAYORDER=
